<mxfile host="65bd71144e">
    <diagram name="AppModule" id="jfQR8UtBfwOKl0b_4exJ">
        <mxGraphModel dx="663" dy="698" grid="1" gridSize="10" guides="1" tooltips="1" connect="1" arrows="1" fold="1" page="1" pageScale="1" pageWidth="850" pageHeight="1100" math="0" shadow="0">
            <root>
                <mxCell id="0"/>
                <mxCell id="1" parent="0"/>
                <mxCell id="2" value="&lt;div style=&quot;color: rgb(212, 212, 212); background-color: rgb(30, 30, 30); font-family: Consolas, &amp;quot;Courier New&amp;quot;, monospace; font-size: 14px; line-height: 19px;&quot;&gt;&lt;div&gt;platformBrowserDynamic().bootstrapModule(AppModule)&lt;/div&gt;&lt;div&gt;&amp;nbsp; .catch(err &lt;span style=&quot;color: #569cd6;&quot;&gt;=&amp;gt;&lt;/span&gt; console.error(err));&lt;/div&gt;&lt;br&gt;&lt;/div&gt;" style="rounded=0;whiteSpace=wrap;html=1;fillColor=#76608a;fontColor=#ffffff;strokeColor=#432D57;" vertex="1" parent="1">
                    <mxGeometry x="90" y="90" width="460" height="180" as="geometry"/>
                </mxCell>
                <mxCell id="4" value="AppModule" style="rounded=0;whiteSpace=wrap;html=1;fillColor=#f0a30a;fontColor=#000000;strokeColor=#BD7000;" vertex="1" parent="1">
                    <mxGeometry x="150" y="370" width="120" height="80" as="geometry"/>
                </mxCell>
                <mxCell id="6" value="declarations" style="rounded=0;whiteSpace=wrap;html=1;" vertex="1" parent="1">
                    <mxGeometry x="290" y="370" width="120" height="40" as="geometry"/>
                </mxCell>
                <mxCell id="7" value="imports" style="rounded=0;whiteSpace=wrap;html=1;" vertex="1" parent="1">
                    <mxGeometry x="290" y="500" width="120" height="40" as="geometry"/>
                </mxCell>
                <mxCell id="8" value="providers" style="rounded=0;whiteSpace=wrap;html=1;" vertex="1" parent="1">
                    <mxGeometry x="290" y="600" width="120" height="40" as="geometry"/>
                </mxCell>
                <mxCell id="9" value="components" style="rounded=0;whiteSpace=wrap;html=1;fillColor=#647687;fontColor=#ffffff;strokeColor=#314354;" vertex="1" parent="1">
                    <mxGeometry x="420" y="370" width="120" height="40" as="geometry"/>
                </mxCell>
                <mxCell id="10" value="directives" style="rounded=0;whiteSpace=wrap;html=1;fillColor=#a0522d;fontColor=#ffffff;strokeColor=#6D1F00;" vertex="1" parent="1">
                    <mxGeometry x="540" y="370" width="120" height="40" as="geometry"/>
                </mxCell>
                <mxCell id="11" value="pipes" style="rounded=0;whiteSpace=wrap;html=1;fillColor=#e3c800;fontColor=#000000;strokeColor=#B09500;" vertex="1" parent="1">
                    <mxGeometry x="660" y="370" width="120" height="40" as="geometry"/>
                </mxCell>
                <mxCell id="12" value="gets modules from other applications" style="rounded=0;whiteSpace=wrap;html=1;fillColor=#76608a;fontColor=#ffffff;strokeColor=#432D57;" vertex="1" parent="1">
                    <mxGeometry x="420" y="500" width="120" height="40" as="geometry"/>
                </mxCell>
                <mxCell id="13" value="bootstrap" style="rounded=0;whiteSpace=wrap;html=1;" vertex="1" parent="1">
                    <mxGeometry x="290" y="700" width="120" height="40" as="geometry"/>
                </mxCell>
                <mxCell id="14" value="Dependency Injection for services / List of services" style="rounded=0;whiteSpace=wrap;html=1;fillColor=#76608a;fontColor=#ffffff;strokeColor=#432D57;" vertex="1" parent="1">
                    <mxGeometry x="420" y="600" width="120" height="50" as="geometry"/>
                </mxCell>
                <mxCell id="15" value="Starting Component" style="rounded=0;whiteSpace=wrap;html=1;fillColor=#76608a;fontColor=#ffffff;strokeColor=#432D57;" vertex="1" parent="1">
                    <mxGeometry x="420" y="700" width="120" height="40" as="geometry"/>
                </mxCell>
                <mxCell id="16" value="AppComponent" style="rounded=0;whiteSpace=wrap;html=1;fillColor=#647687;fontColor=#ffffff;strokeColor=#314354;" vertex="1" parent="1">
                    <mxGeometry x="420" y="420" width="110" height="40" as="geometry"/>
                </mxCell>
                <mxCell id="17" value="BrowserModule" style="rounded=0;whiteSpace=wrap;html=1;fillColor=#76608a;fontColor=#ffffff;strokeColor=#432D57;" vertex="1" parent="1">
                    <mxGeometry x="420" y="550" width="120" height="40" as="geometry"/>
                </mxCell>
                <mxCell id="18" value="AppComponent" style="rounded=0;whiteSpace=wrap;html=1;fillColor=#76608a;fontColor=#ffffff;strokeColor=#432D57;" vertex="1" parent="1">
                    <mxGeometry x="420" y="750" width="120" height="40" as="geometry"/>
                </mxCell>
                <mxCell id="uZBTvGiXa_WAXAKEFW1Y-18" value="exports" style="rounded=0;whiteSpace=wrap;html=1;" vertex="1" parent="1">
                    <mxGeometry x="290" y="811" width="120" height="40" as="geometry"/>
                </mxCell>
                <mxCell id="uZBTvGiXa_WAXAKEFW1Y-19" value="provides modules to toher applications&lt;br&gt;" style="rounded=0;whiteSpace=wrap;html=1;fillColor=#76608a;fontColor=#ffffff;strokeColor=#432D57;" vertex="1" parent="1">
                    <mxGeometry x="425" y="811" width="120" height="40" as="geometry"/>
                </mxCell>
                <mxCell id="uZBTvGiXa_WAXAKEFW1Y-20" value="Crude Oil" style="rounded=0;whiteSpace=wrap;html=1;fillColor=#f0a30a;fontColor=#000000;strokeColor=#BD7000;" vertex="1" parent="1">
                    <mxGeometry x="150" y="900" width="120" height="80" as="geometry"/>
                </mxCell>
                <mxCell id="uZBTvGiXa_WAXAKEFW1Y-21" value="imports" style="rounded=0;whiteSpace=wrap;html=1;" vertex="1" parent="1">
                    <mxGeometry x="300" y="900" width="120" height="40" as="geometry"/>
                </mxCell>
                <mxCell id="uZBTvGiXa_WAXAKEFW1Y-22" value="exports" style="rounded=0;whiteSpace=wrap;html=1;" vertex="1" parent="1">
                    <mxGeometry x="300" y="960" width="120" height="40" as="geometry"/>
                </mxCell>
                <mxCell id="uZBTvGiXa_WAXAKEFW1Y-24" value="" style="verticalLabelPosition=bottom;aspect=fixed;html=1;verticalAlign=top;fillColor=strokeColor;align=center;outlineConnect=0;shape=mxgraph.fluid_power.x12220;points=[[0,0.365,0],[1,0.365,0],[0.5,1,0]]" vertex="1" parent="1">
                    <mxGeometry x="160.00000000000003" y="908.66" width="90.42" height="71.34" as="geometry"/>
                </mxCell>
                <mxCell id="uZBTvGiXa_WAXAKEFW1Y-25" value="Russia" style="rounded=0;whiteSpace=wrap;html=1;fillColor=#76608a;fontColor=#ffffff;strokeColor=#432D57;" vertex="1" parent="1">
                    <mxGeometry x="440" y="900" width="120" height="40" as="geometry"/>
                </mxCell>
                <mxCell id="uZBTvGiXa_WAXAKEFW1Y-26" value="Africa" style="rounded=0;whiteSpace=wrap;html=1;fillColor=#76608a;fontColor=#ffffff;strokeColor=#432D57;" vertex="1" parent="1">
                    <mxGeometry x="440" y="960" width="120" height="40" as="geometry"/>
                </mxCell>
            </root>
        </mxGraphModel>
    </diagram>
    <diagram id="P1NXme4ORHcNNfK4pbAI" name="Routing">
        <mxGraphModel grid="1" page="1" gridSize="10" guides="1" tooltips="1" connect="1" arrows="1" fold="1" pageScale="1" pageWidth="850" pageHeight="1100" math="0" shadow="0">
            <root>
                <mxCell id="0"/>
                <mxCell id="1" parent="0"/>
                <mxCell id="6VSZIfjTn4PM5-rzttud-13" value="" style="edgeStyle=none;html=1;" edge="1" parent="1" source="6VSZIfjTn4PM5-rzttud-2" target="6VSZIfjTn4PM5-rzttud-9">
                    <mxGeometry relative="1" as="geometry"/>
                </mxCell>
                <mxCell id="6VSZIfjTn4PM5-rzttud-14" value="" style="edgeStyle=none;html=1;" edge="1" parent="1" source="6VSZIfjTn4PM5-rzttud-2" target="6VSZIfjTn4PM5-rzttud-11">
                    <mxGeometry relative="1" as="geometry"/>
                </mxCell>
                <mxCell id="6VSZIfjTn4PM5-rzttud-2" value="ANGULAR DOCS" style="rounded=0;whiteSpace=wrap;html=1;fillColor=#f0a30a;fontColor=#000000;strokeColor=#BD7000;" vertex="1" parent="1">
                    <mxGeometry x="195" y="140" width="120" height="60" as="geometry"/>
                </mxCell>
                <mxCell id="6VSZIfjTn4PM5-rzttud-3" value="" style="html=1;verticalLabelPosition=bottom;align=center;labelBackgroundColor=#ffffff;verticalAlign=top;strokeWidth=2;strokeColor=#0080F0;shadow=0;dashed=0;shape=mxgraph.ios7.icons.globe;" vertex="1" parent="1">
                    <mxGeometry x="190" y="210" width="130" height="110" as="geometry"/>
                </mxCell>
                <mxCell id="6VSZIfjTn4PM5-rzttud-5" value="SFASF" style="sketch=0;pointerEvents=1;shadow=0;dashed=0;html=1;strokeColor=#BD7000;fillColor=#f0a30a;labelPosition=center;verticalLabelPosition=bottom;verticalAlign=top;outlineConnect=0;align=center;shape=mxgraph.office.concepts.web_page;fontColor=#000000;" vertex="1" parent="1">
                    <mxGeometry x="90" y="640" width="50" height="54" as="geometry"/>
                </mxCell>
                <mxCell id="6VSZIfjTn4PM5-rzttud-6" value="" style="sketch=0;pointerEvents=1;shadow=0;dashed=0;html=1;strokeColor=#BD7000;fillColor=#f0a30a;labelPosition=center;verticalLabelPosition=bottom;verticalAlign=top;outlineConnect=0;align=center;shape=mxgraph.office.concepts.web_page;fontColor=#000000;" vertex="1" parent="1">
                    <mxGeometry x="210" y="640" width="50" height="54" as="geometry"/>
                </mxCell>
                <mxCell id="6VSZIfjTn4PM5-rzttud-9" value="GITHUB" style="rounded=0;whiteSpace=wrap;html=1;fillColor=#f0a30a;fontColor=#000000;strokeColor=#BD7000;" vertex="1" parent="1">
                    <mxGeometry x="405" y="140" width="120" height="60" as="geometry"/>
                </mxCell>
                <mxCell id="6VSZIfjTn4PM5-rzttud-10" value="" style="html=1;verticalLabelPosition=bottom;align=center;labelBackgroundColor=#ffffff;verticalAlign=top;strokeWidth=2;strokeColor=#0080F0;shadow=0;dashed=0;shape=mxgraph.ios7.icons.globe;" vertex="1" parent="1">
                    <mxGeometry x="400" y="210" width="130" height="110" as="geometry"/>
                </mxCell>
                <mxCell id="6VSZIfjTn4PM5-rzttud-11" value="STACKOVERFLOW" style="rounded=0;whiteSpace=wrap;html=1;fillColor=#f0a30a;fontColor=#000000;strokeColor=#BD7000;" vertex="1" parent="1">
                    <mxGeometry x="-15" y="140" width="120" height="60" as="geometry"/>
                </mxCell>
                <mxCell id="6VSZIfjTn4PM5-rzttud-12" value="" style="html=1;verticalLabelPosition=bottom;align=center;labelBackgroundColor=#ffffff;verticalAlign=top;strokeWidth=2;strokeColor=#0080F0;shadow=0;dashed=0;shape=mxgraph.ios7.icons.globe;" vertex="1" parent="1">
                    <mxGeometry x="-20" y="210" width="130" height="110" as="geometry"/>
                </mxCell>
                <mxCell id="6VSZIfjTn4PM5-rzttud-15" value="HYPERLINKS FOR NAVIGATION ACROSS PAGES INS DIFFERENT DOMAINS (WEB SITES)" style="rounded=0;whiteSpace=wrap;html=1;fillColor=#76608a;fontColor=#ffffff;strokeColor=#432D57;" vertex="1" parent="1">
                    <mxGeometry x="140" y="50" width="330" height="60" as="geometry"/>
                </mxCell>
                <mxCell id="6VSZIfjTn4PM5-rzttud-18" value="HYPERLINKS FOR NAVIGATION ACROSS DIFFERENT PAGES IN THE SAME WEB APPLICATION" style="rounded=0;whiteSpace=wrap;html=1;fillColor=#76608a;fontColor=#ffffff;strokeColor=#432D57;" vertex="1" parent="1">
                    <mxGeometry x="160" y="420" width="330" height="60" as="geometry"/>
                </mxCell>
                <mxCell id="6VSZIfjTn4PM5-rzttud-19" value="" style="dashed=0;outlineConnect=0;html=1;align=center;labelPosition=center;verticalLabelPosition=bottom;verticalAlign=top;shape=mxgraph.webicons.github;gradientColor=#DFDEDE" vertex="1" parent="1">
                    <mxGeometry x="130" y="520" width="102.4" height="102.4" as="geometry"/>
                </mxCell>
                <mxCell id="6VSZIfjTn4PM5-rzttud-20" value="LOGO CLIKE" style="rounded=0;whiteSpace=wrap;html=1;fillColor=#a0522d;fontColor=#ffffff;strokeColor=#6D1F00;" vertex="1" parent="1">
                    <mxGeometry x="40" y="720" width="120" height="60" as="geometry"/>
                </mxCell>
                <mxCell id="6VSZIfjTn4PM5-rzttud-21" value="FILES IN REPO" style="rounded=0;whiteSpace=wrap;html=1;fillColor=#a0522d;fontColor=#ffffff;strokeColor=#6D1F00;" vertex="1" parent="1">
                    <mxGeometry x="190" y="720" width="120" height="60" as="geometry"/>
                </mxCell>
                <mxCell id="6VSZIfjTn4PM5-rzttud-22" value="SFASF" style="sketch=0;pointerEvents=1;shadow=0;dashed=0;html=1;strokeColor=#BD7000;fillColor=#f0a30a;labelPosition=center;verticalLabelPosition=bottom;verticalAlign=top;outlineConnect=0;align=center;shape=mxgraph.office.concepts.web_page;fontColor=#000000;" vertex="1" parent="1">
                    <mxGeometry x="210" y="1110" width="140" height="120" as="geometry"/>
                </mxCell>
                <mxCell id="6VSZIfjTn4PM5-rzttud-24" value="NAVIGATION WITH A SINGLE WEB PAGE (ROUTING IN ANGULAR)" style="rounded=0;whiteSpace=wrap;html=1;fillColor=#76608a;fontColor=#ffffff;strokeColor=#432D57;" vertex="1" parent="1">
                    <mxGeometry x="130" y="930" width="330" height="60" as="geometry"/>
                </mxCell>
                <mxCell id="6VSZIfjTn4PM5-rzttud-28" value="" style="html=1;verticalLabelPosition=bottom;align=center;labelBackgroundColor=#ffffff;verticalAlign=top;strokeWidth=2;strokeColor=#0080F0;shadow=0;dashed=0;shape=mxgraph.ios7.icons.globe;" vertex="1" parent="1">
                    <mxGeometry x="102.4" y="1030" width="130" height="110" as="geometry"/>
                </mxCell>
                <mxCell id="6VSZIfjTn4PM5-rzttud-38" value="ASYNCHRONOUOS&lt;br&gt;WITH THE&amp;nbsp;&lt;br&gt;HELP OF SERVICES" style="edgeStyle=none;html=1;" edge="1" parent="1" source="6VSZIfjTn4PM5-rzttud-33" target="6VSZIfjTn4PM5-rzttud-37">
                    <mxGeometry relative="1" as="geometry"/>
                </mxCell>
                <mxCell id="6VSZIfjTn4PM5-rzttud-33" value="COMPONENT" style="rounded=0;whiteSpace=wrap;html=1;fillColor=#e6d0de;strokeColor=#996185;gradientColor=#d5739d;" vertex="1" parent="1">
                    <mxGeometry x="160" y="1260" width="120" height="60" as="geometry"/>
                </mxCell>
                <mxCell id="6VSZIfjTn4PM5-rzttud-34" value="COMPONENT" style="rounded=0;whiteSpace=wrap;html=1;fillColor=#e6d0de;strokeColor=#996185;gradientColor=#d5739d;" vertex="1" parent="1">
                    <mxGeometry x="290" y="1260" width="120" height="60" as="geometry"/>
                </mxCell>
                <mxCell id="6VSZIfjTn4PM5-rzttud-35" value="COMPONENT" style="rounded=0;whiteSpace=wrap;html=1;fillColor=#e6d0de;strokeColor=#996185;gradientColor=#d5739d;" vertex="1" parent="1">
                    <mxGeometry x="420" y="1260" width="120" height="60" as="geometry"/>
                </mxCell>
                <mxCell id="6VSZIfjTn4PM5-rzttud-36" value="ANGULAR ROUTER" style="rounded=0;whiteSpace=wrap;html=1;fillColor=#1ba1e2;strokeColor=#006EAF;fontColor=#ffffff;" vertex="1" parent="1">
                    <mxGeometry x="180" y="1340" width="330" height="60" as="geometry"/>
                </mxCell>
                <mxCell id="6VSZIfjTn4PM5-rzttud-37" value="GOOGLE SERVER" style="image;html=1;image=img/lib/clip_art/computers/Server_Rack_128x128.png" vertex="1" parent="1">
                    <mxGeometry x="-60" y="1280" width="80" height="80" as="geometry"/>
                </mxCell>
                <mxCell id="6VSZIfjTn4PM5-rzttud-39" value="STEPS FOR IMPLEMENT THE ROUTER" style="rounded=0;whiteSpace=wrap;html=1;fillColor=#a20025;strokeColor=#6F0000;fontColor=#ffffff;" vertex="1" parent="1">
                    <mxGeometry x="-40" y="1560" width="330" height="60" as="geometry"/>
                </mxCell>
                <mxCell id="thcBZAomQ73q-wz2zsOT-1" value="Step-1 :- Create the AppRoutingModule" style="rounded=0;whiteSpace=wrap;html=1;fillColor=#1ba1e2;strokeColor=#006EAF;fontColor=#ffffff;" vertex="1" parent="1">
                    <mxGeometry x="2.4" y="1650" width="307.6" height="40" as="geometry"/>
                </mxCell>
                <mxCell id="thcBZAomQ73q-wz2zsOT-2" value="Step-2 :-&amp;nbsp;" style="rounded=0;whiteSpace=wrap;html=1;fillColor=#1ba1e2;strokeColor=#006EAF;fontColor=#ffffff;" vertex="1" parent="1">
                    <mxGeometry y="1700" width="307.6" height="40" as="geometry"/>
                </mxCell>
                <mxCell id="thcBZAomQ73q-wz2zsOT-3" value="Step-3 :-&amp;nbsp;" style="rounded=0;whiteSpace=wrap;html=1;fillColor=#1ba1e2;strokeColor=#006EAF;fontColor=#ffffff;" vertex="1" parent="1">
                    <mxGeometry x="2.4" y="1760" width="307.6" height="40" as="geometry"/>
                </mxCell>
                <mxCell id="thcBZAomQ73q-wz2zsOT-4" value="Step-4 :-" style="rounded=0;whiteSpace=wrap;html=1;fillColor=#1ba1e2;strokeColor=#006EAF;fontColor=#ffffff;" vertex="1" parent="1">
                    <mxGeometry x="-1.3322676295501878e-15" y="1820" width="307.6" height="40" as="geometry"/>
                </mxCell>
            </root>
        </mxGraphModel>
    </diagram>
</mxfile>